<?xml version="1.0" encoding="UTF-8"?>
<svg version="1.1" xmlns="http://www.w3.org/2000/svg" width="500" height="500">
<path d="M0 0 C165 0 330 0 500 0 C500 165 500 330 500 500 C335 500 170 500 0 500 C0 335 0 170 0 0 Z " fill="#000000" transform="translate(0,0)"/>
<path d="M0 0 C4.05723987 2.13927193 6.30972687 3.75519644 8 8 C8.68452863 12.82353896 8.80819351 17.41999524 6.125 21.625 C5.073125 22.800625 5.073125 22.800625 4 24 C3.34 24 2.68 24 2 24 C2 29.61 2 35.22 2 41 C4.27777344 40.93039063 6.55554688 40.86078125 8.90234375 40.7890625 C11.13642375 40.74211774 13.37044644 40.70577404 15.60473633 40.67041016 C17.14405364 40.64044542 18.68320325 40.59965709 20.22192383 40.54736328 C35.64292201 40.03683364 35.64292201 40.03683364 42.39306641 45.45043945 C46.78198247 49.68265614 49.77511394 53.66718853 50.1953125 59.89453125 C50.17210937 60.85746094 50.14890625 61.82039063 50.125 62.8125 C50.10695313 63.78832031 50.08890625 64.76414062 50.0703125 65.76953125 C50.04710937 66.50558594 50.02390625 67.24164063 50 68 C51.051875 68.0825 52.10375 68.165 53.1875 68.25 C57.30271705 69.0595509 59.02972998 70.11709086 62 73 C63.53214888 76.06429776 63.22938548 78.6165642 63 82 C61.20867493 86.14833175 59.10966469 88.14086598 55 90 C52.1875 90.1875 52.1875 90.1875 50 90 C50.0825 91.27875 50.165 92.5575 50.25 93.875 C50.22008169 100.20770811 48.56466993 106.0524528 44.3515625 110.89453125 C38.77106861 115.90235437 33.73702947 117.3006456 26.27563477 117.2746582 C25.51401031 117.27976913 24.75238586 117.28488007 23.96768188 117.29014587 C21.45884262 117.30400591 18.95027917 117.30308788 16.44140625 117.30078125 C14.69172565 117.30467006 12.94204599 117.30900511 11.19236755 117.31376648 C7.5281976 117.32122089 3.86412402 117.32094299 0.19995117 117.31567383 C-4.48862257 117.30987919 -9.17680127 117.32681374 -13.86530972 117.3500185 C-17.47791336 117.36477129 -21.09042218 117.36562546 -24.70305061 117.36250877 C-26.43136439 117.36302117 -28.15968359 117.36824366 -29.88796806 117.37832069 C-32.30765113 117.39069839 -34.72656883 117.38388595 -37.14624023 117.37231445 C-37.8555217 117.37995819 -38.56480316 117.38760193 -39.295578 117.39547729 C-44.89581297 117.33647261 -48.90302037 115.91289363 -53.046875 112.1328125 C-53.60890625 111.47023438 -54.1709375 110.80765625 -54.75 110.125 C-55.32234375 109.46757812 -55.8946875 108.81015625 -56.484375 108.1328125 C-59.63309285 103.7018848 -60.24339532 100.07448701 -60.125 94.6875 C-60.10695312 93.61886719 -60.08890625 92.55023438 -60.0703125 91.44921875 C-60.04710937 90.64097656 -60.02390625 89.83273438 -60 89 C-61.216875 89.103125 -62.43375 89.20625 -63.6875 89.3125 C-67.06239186 89.2825276 -67.99390469 89.00380957 -71 87.125 C-73.80989899 82.73453283 -74.0151866 79.07593299 -73 74 C-71 70.875 -71 70.875 -68 69 C-65.19295373 68.6108531 -62.85692122 68.75788803 -60 69 C-60.03480469 68.21496094 -60.06960937 67.42992187 -60.10546875 66.62109375 C-60.31173396 58.61603909 -60.05829244 53.55423176 -54.6875 47.3125 C-49.14642409 42.54459747 -45.3525343 40.39572372 -37.9765625 40.609375 C-37.23038666 40.61503479 -36.48421082 40.62069458 -35.71542358 40.62652588 C-33.35127363 40.64877102 -30.98868541 40.69894016 -28.625 40.75 C-27.01434493 40.77008056 -25.40366591 40.7883286 -23.79296875 40.8046875 C-19.86138493 40.84859619 -15.93095648 40.91753682 -12 41 C-12.03324892 38.45494659 -12.10064363 35.91833268 -12.1875 33.375 C-12.19330078 32.66214844 -12.19910156 31.94929688 -12.20507812 31.21484375 C-12.44194434 25.47741755 -14.08872921 23.14850183 -18 19 C-19.20643566 15.38069302 -19.32268559 12.80768995 -19 9 C-14.72953551 0.62331966 -8.96304166 -2.51734802 0 0 Z " fill="#020202" transform="translate(255,159)"/>
<path d="M0 0 C4.05723987 2.13927193 6.30972687 3.75519644 8 8 C8.68452863 12.82353896 8.80819351 17.41999524 6.125 21.625 C5.073125 22.800625 5.073125 22.800625 4 24 C3.34 24 2.68 24 2 24 C2 29.61 2 35.22 2 41 C4.27777344 40.93039063 6.55554688 40.86078125 8.90234375 40.7890625 C11.13642375 40.74211774 13.37044644 40.70577404 15.60473633 40.67041016 C17.14405364 40.64044542 18.68320325 40.59965709 20.22192383 40.54736328 C35.64292201 40.03683364 35.64292201 40.03683364 42.39306641 45.45043945 C46.78198247 49.68265614 49.77511394 53.66718853 50.1953125 59.89453125 C50.17210937 60.85746094 50.14890625 61.82039063 50.125 62.8125 C50.10695313 63.78832031 50.08890625 64.76414062 50.0703125 65.76953125 C50.04710937 66.50558594 50.02390625 67.24164063 50 68 C51.051875 68.0825 52.10375 68.165 53.1875 68.25 C57.30271705 69.0595509 59.02972998 70.11709086 62 73 C63.53214888 76.06429776 63.22938548 78.6165642 63 82 C61.20867493 86.14833175 59.10966469 88.14086598 55 90 C52.1875 90.1875 52.1875 90.1875 50 90 C50.0825 91.27875 50.165 92.5575 50.25 93.875 C50.22008169 100.20770811 48.56466993 106.0524528 44.3515625 110.89453125 C38.77106861 115.90235437 33.73702947 117.3006456 26.27563477 117.2746582 C25.51401031 117.27976913 24.75238586 117.28488007 23.96768188 117.29014587 C21.45884262 117.30400591 18.95027917 117.30308788 16.44140625 117.30078125 C14.69172565 117.30467006 12.94204599 117.30900511 11.19236755 117.31376648 C7.5281976 117.32122089 3.86412402 117.32094299 0.19995117 117.31567383 C-4.48862257 117.30987919 -9.17680127 117.32681374 -13.86530972 117.3500185 C-17.47791336 117.36477129 -21.09042218 117.36562546 -24.70305061 117.36250877 C-26.43136439 117.36302117 -28.15968359 117.36824366 -29.88796806 117.37832069 C-32.30765113 117.39069839 -34.72656883 117.38388595 -37.14624023 117.37231445 C-37.8555217 117.37995819 -38.56480316 117.38760193 -39.295578 117.39547729 C-44.89581297 117.33647261 -48.90302037 115.91289363 -53.046875 112.1328125 C-53.60890625 111.47023438 -54.1709375 110.80765625 -54.75 110.125 C-55.32234375 109.46757812 -55.8946875 108.81015625 -56.484375 108.1328125 C-59.63309285 103.7018848 -60.24339532 100.07448701 -60.125 94.6875 C-60.10695312 93.61886719 -60.08890625 92.55023438 -60.0703125 91.44921875 C-60.04710937 90.64097656 -60.02390625 89.83273438 -60 89 C-61.216875 89.103125 -62.43375 89.20625 -63.6875 89.3125 C-67.06239186 89.2825276 -67.99390469 89.00380957 -71 87.125 C-73.80989899 82.73453283 -74.0151866 79.07593299 -73 74 C-71 70.875 -71 70.875 -68 69 C-65.19295373 68.6108531 -62.85692122 68.75788803 -60 69 C-60.03480469 68.21496094 -60.06960937 67.42992187 -60.10546875 66.62109375 C-60.31173396 58.61603909 -60.05829244 53.55423176 -54.6875 47.3125 C-49.14642409 42.54459747 -45.3525343 40.39572372 -37.9765625 40.609375 C-37.23038666 40.61503479 -36.48421082 40.62069458 -35.71542358 40.62652588 C-33.35127363 40.64877102 -30.98868541 40.69894016 -28.625 40.75 C-27.01434493 40.77008056 -25.40366591 40.7883286 -23.79296875 40.8046875 C-19.86138493 40.84859619 -15.93095648 40.91753682 -12 41 C-12.03324892 38.45494659 -12.10064363 35.91833268 -12.1875 33.375 C-12.19330078 32.66214844 -12.19910156 31.94929688 -12.20507812 31.21484375 C-12.44194434 25.47741755 -14.08872921 23.14850183 -18 19 C-19.20643566 15.38069302 -19.32268559 12.80768995 -19 9 C-14.72953551 0.62331966 -8.96304166 -2.51734802 0 0 Z M-51 53 C-52.88131913 55.82870095 -53.2587393 58.01529038 -53.30639648 61.38208008 C-53.32238388 62.2400972 -53.33837128 63.09811432 -53.35484314 63.98213196 C-53.36020584 64.90197372 -53.36556854 65.82181549 -53.37109375 66.76953125 C-53.38012222 67.72389572 -53.3891507 68.67826019 -53.39845276 69.6615448 C-53.41294923 71.67968615 -53.4218405 73.69787443 -53.42553711 75.71606445 C-53.43741825 78.79134107 -53.48659693 81.86460073 -53.53710938 84.93945312 C-53.54657592 86.90363608 -53.55380985 88.86783131 -53.55859375 90.83203125 C-53.57812607 91.74580032 -53.59765839 92.6595694 -53.61778259 93.60102844 C-53.58000578 98.99290988 -52.78014948 102.33425706 -49.46473694 106.63090515 C-45.58018646 110.26180836 -41.6833533 110.29718076 -36.57275391 110.29052734 C-35.45979698 110.30060318 -35.45979698 110.30060318 -34.32435608 110.31088257 C-31.87502316 110.329858 -29.42596432 110.33378651 -26.9765625 110.3359375 C-25.27029305 110.34236581 -23.56402471 110.3490942 -21.85775757 110.35610962 C-18.28177333 110.36808127 -14.70588568 110.37179057 -11.12988281 110.37060547 C-6.55439893 110.3704023 -1.9795363 110.39770256 2.5958004 110.43214989 C6.1200544 110.45442066 9.64415894 110.45844296 13.1684761 110.45738602 C14.8549374 110.45974178 16.54140282 110.46856398 18.22779465 110.48405075 C20.59029004 110.50371481 22.95144648 110.4978721 25.31396484 110.48583984 C26.00611588 110.49707886 26.69826691 110.50831787 27.41139221 110.51989746 C32.37544848 110.45586595 35.15461689 109.06494082 39 106 C42.03721763 102.5438558 43.11306379 99.56086144 43.17700195 94.9909668 C43.18983719 94.18970871 43.20267242 93.38845062 43.21589661 92.56291199 C43.22328354 91.70039322 43.23067047 90.83787445 43.23828125 89.94921875 C43.25038887 88.61187431 43.25038887 88.61187431 43.26274109 87.24751282 C43.27656906 85.36042214 43.28729697 83.47330658 43.29516602 81.58618164 C43.31237345 78.708662 43.35626988 75.83229319 43.40039062 72.95507812 C43.41051855 71.1198001 43.41903434 69.28451232 43.42578125 67.44921875 C43.45204338 66.16454964 43.45204338 66.16454964 43.47883606 64.85392761 C43.45916531 59.40289597 42.68020996 56.28159 39 52 C35.60203854 48.6448599 33.23416733 47.5389699 28.43110657 47.44677734 C27.71980087 47.45330322 27.00849518 47.4598291 26.27563477 47.46655273 C25.51401031 47.45793716 24.75238586 47.44932159 23.96768188 47.44044495 C21.45857424 47.41780553 18.95058542 47.4245199 16.44140625 47.43359375 C14.69172332 47.42835699 12.94204322 47.42208031 11.19236755 47.41481018 C7.52809348 47.40440956 3.86420783 47.40896207 0.19995117 47.42358398 C-4.48892344 47.44076568 -9.17657193 47.41728309 -13.86530972 47.38209438 C-17.47797215 47.36010107 -21.09034212 47.36156658 -24.70305061 47.3698597 C-26.4313701 47.37067827 -28.15971127 47.36383272 -29.88796806 47.34908867 C-32.3081515 47.33160731 -34.72614371 47.34621237 -37.14624023 47.36889648 C-37.8555217 47.35720428 -38.56480316 47.34551208 -39.295578 47.33346558 C-44.92744776 47.44051251 -47.21601084 49.10623787 -51 53 Z " fill="#FCFCFC" transform="translate(255,159)"/>
<path d="M0 0 C4.05723987 2.13927193 6.30972687 3.75519644 8 8 C8.68452863 12.82353896 8.80819351 17.41999524 6.125 21.625 C5.073125 22.800625 5.073125 22.800625 4 24 C3.34 24 2.68 24 2 24 C2 29.94 2 35.88 2 42 C12.56 42 23.12 42 34 42 C34 42.99 34 43.98 34 45 C31.5704097 47.4295903 30.30611087 47.23446257 26.99156189 47.24884033 C26.29744705 47.24164978 25.60333221 47.23445923 24.88818359 47.22705078 C23.79046883 47.22748886 23.79046883 47.22748886 22.670578 47.22793579 C20.24641146 47.22654001 17.82255049 47.2109674 15.3984375 47.1953125 C13.71977913 47.19158325 12.04111859 47.18873586 10.36245728 47.18673706 C5.94008393 47.17909369 1.51784155 47.15943922 -2.90447998 47.1373291 C-7.41546863 47.11688579 -11.9264784 47.10773859 -16.4375 47.09765625 C-25.29172427 47.07619394 -34.14585125 47.04204955 -43 47 C-43.66 45.68 -44.32 44.36 -45 43 C-44 42 -44 42 -40.94897461 41.88647461 C-39.60008729 41.88663366 -38.25119386 41.89232388 -36.90234375 41.90234375 C-35.83905602 41.90446617 -35.83905602 41.90446617 -34.75428772 41.90663147 C-32.48198288 41.91224557 -30.20977525 41.92480037 -27.9375 41.9375 C-26.40039204 41.94251319 -24.86328255 41.94707641 -23.32617188 41.95117188 C-19.55074358 41.96221958 -15.77538829 41.97949359 -12 42 C-12.03321471 39.28847193 -12.10058688 36.58490654 -12.1875 33.875 C-12.19330078 33.11445313 -12.19910156 32.35390625 -12.20507812 31.5703125 C-12.43439041 25.65915142 -13.94035073 23.25537108 -18 19 C-19.20643566 15.38069302 -19.32268559 12.80768995 -19 9 C-14.72953551 0.62331966 -8.96304166 -2.51734802 0 0 Z " fill="#FEFEFE" transform="translate(255,159)"/>
<path d="M0 0 C0 2.97 0 5.94 0 9 C1.8253125 8.87625 1.8253125 8.87625 3.6875 8.75 C7.0726174 8.73799604 7.93868234 8.96086107 10.9375 10.875 C13.60446101 13.62277801 13.95824498 14.446746 14.25 18.3125 C13.98118885 22.27746452 13.46797825 23.93630287 11 27 C7.58511082 29.60609964 5.27788797 30.36667611 1 30 C1.0825 31.27875 1.165 32.5575 1.25 33.875 C1.22008169 40.20770811 -0.43533007 46.0524528 -4.6484375 50.89453125 C-10.26983897 55.93906401 -15.30478219 57.30202393 -22.81958008 57.22705078 C-23.59084229 57.22734283 -24.36210449 57.22763489 -25.15673828 57.22793579 C-27.69445219 57.22654752 -30.23186891 57.21101015 -32.76953125 57.1953125 C-34.53358296 57.19158058 -36.29763675 57.18873445 -38.06169128 57.18673706 C-42.69609335 57.1791147 -47.33036931 57.15947821 -51.96472168 57.1373291 C-56.69716689 57.11684057 -61.42963256 57.10772891 -66.16210938 57.09765625 C-75.44146154 57.076231 -84.72072027 57.04211192 -94 57 C-94 56.67 -94 56.34 -94 56 C-72.88 55.67 -51.76 55.34 -30 55 C-29.67 54.01 -29.34 53.02 -29 52 C-49.46 51.67 -69.92 51.34 -91 51 C-91 50.67 -91 50.34 -91 50 C-90.07371796 49.99635437 -89.14743591 49.99270874 -88.19308472 49.98895264 C-79.4533501 49.95104784 -70.7139877 49.89416672 -61.97451591 49.81609726 C-57.48169391 49.77662891 -52.98906771 49.74443736 -48.49609375 49.72900391 C-44.15810775 49.71383297 -39.82066008 49.67938002 -35.48291397 49.63169098 C-33.83001516 49.61688162 -32.17703949 49.60895924 -30.52407455 49.60811615 C-28.20410882 49.60574329 -25.88562697 49.57864093 -23.56591797 49.54589844 C-22.24687469 49.53701599 -20.92783142 49.52813354 -19.56881714 49.51898193 C-15.40481604 48.91344759 -13.24902043 47.62865433 -10 45 C-6.96469512 40.48221608 -6.59334932 36.4551042 -6.6640625 31.15234375 C-6.65155713 29.64517793 -6.63852034 28.13801644 -6.625 26.63085938 C-6.6210649 24.27840898 -6.62506889 21.92638488 -6.63964844 19.57397461 C-6.64823279 17.28695922 -6.62652874 15.00170401 -6.6015625 12.71484375 C-6.61490631 12.01576401 -6.62825012 11.31668427 -6.64199829 10.59642029 C-6.58235689 6.6385286 -6.09127895 5.10997952 -3.52490234 2.01782227 C-1 0 -1 0 0 0 Z " fill="#FDFDFD" transform="translate(304,219)"/>
<path d="M0 0 C3.66666667 3.66666667 7.33333333 7.33333333 11 11 C13.95950142 9.62594577 16.41495396 7.98223068 19 6 C19.01401855 6.99797607 19.01401855 6.99797607 19.02832031 8.01611328 C19.08226019 11.05314019 19.16586062 14.08866579 19.25 17.125 C19.26417969 18.17171875 19.27835938 19.2184375 19.29296875 20.296875 C19.48158742 26.25722483 19.69685563 30.4802544 24 35 C28.26813559 37.52588607 31.43466603 38.38198639 36.37255859 38.43237305 C37.61339203 38.45216721 38.85422546 38.47196136 40.13265991 38.49235535 C41.47125089 38.49912347 42.80984353 38.50557053 44.1484375 38.51171875 C45.5299335 38.52858002 46.91141429 38.5467322 48.2928772 38.56611633 C51.9128138 38.61346597 55.53268872 38.64337199 59.15283203 38.66955566 C62.85331396 38.6994376 66.55358371 38.74594151 70.25390625 38.79101562 C77.50249853 38.87687734 84.75110653 38.94429813 92 39 C92 40.32 92 41.64 92 43 C90.18254395 44.81745605 87.35197413 44.14668249 84.90722656 44.16113281 C83.60207092 44.17074036 82.29691528 44.1803479 80.95220947 44.19024658 C79.51501642 44.19509516 78.07782134 44.19937384 76.640625 44.203125 C75.17429603 44.20887523 73.70796709 44.21463298 72.24163818 44.22039795 C69.16141407 44.23091973 66.08121613 44.23675407 63.00097656 44.24023438 C59.05877878 44.24570909 55.11692815 44.26970982 51.17483902 44.29820633 C48.14303591 44.31685912 45.11131578 44.32203979 42.07946014 44.32357025 C40.62662618 44.32659345 39.17379357 44.33461083 37.72101593 44.34775543 C35.68419759 44.36486243 33.64723646 44.36108415 31.61035156 44.35644531 C30.45198792 44.36009094 29.29362427 44.36373657 28.10015869 44.36749268 C23.12087364 43.77724844 19.98302079 41.38202464 16.8125 37.625 C16.32394531 37.06039062 15.83539063 36.49578125 15.33203125 35.9140625 C12.31391444 31.57717911 11.76011355 27.91483365 11.875 22.6875 C11.89304688 21.61886719 11.91109375 20.55023438 11.9296875 19.44921875 C11.95289063 18.64097656 11.97609375 17.83273438 12 17 C10.783125 17.103125 9.56625 17.20625 8.3125 17.3125 C4.93760814 17.2825276 4.00609531 17.00380957 1 15.125 C-1.77644356 10.78680694 -1.62286015 7.02737124 -1 2 C-0.67 1.34 -0.34 0.68 0 0 Z " fill="#F7F7F7" transform="translate(183,231)"/>
<path d="M0 0 C0.495 7.425 0.495 7.425 1 15 C16.84 15.495 16.84 15.495 33 16 C33 16.99 33 17.98 33 19 C30.5704097 21.4295903 29.30611087 21.23446257 25.99156189 21.24884033 C25.29744705 21.24164978 24.60333221 21.23445923 23.88818359 21.22705078 C22.79046883 21.22748886 22.79046883 21.22748886 21.670578 21.22793579 C19.24641146 21.22654001 16.82255049 21.2109674 14.3984375 21.1953125 C12.71977913 21.19158325 11.04111859 21.18873586 9.36245728 21.18673706 C4.94008393 21.17909369 0.51784155 21.15943922 -3.90447998 21.1373291 C-8.41546863 21.11688579 -12.9264784 21.10773859 -17.4375 21.09765625 C-26.29172427 21.07619394 -35.14585125 21.04204955 -44 21 C-44.66 19.68 -45.32 18.36 -46 17 C-45 16 -45 16 -41.94897461 15.88647461 C-40.60008729 15.88663366 -39.25119386 15.89232388 -37.90234375 15.90234375 C-36.83905602 15.90446617 -36.83905602 15.90446617 -35.75428772 15.90663147 C-33.48198288 15.91224557 -31.20977525 15.92480037 -28.9375 15.9375 C-27.40039204 15.94251319 -25.86328255 15.94707641 -24.32617188 15.95117188 C-20.55074358 15.96221958 -16.77538829 15.97949359 -13 16 C-12.88591797 15.23469971 -12.77183594 14.46939941 -12.65429688 13.6809082 C-11.72278423 9.8641394 -9.2669664 7.79764841 -6.5 5.1875 C-5.98824219 4.68541016 -5.47648437 4.18332031 -4.94921875 3.66601562 C-1.16848427 0 -1.16848427 0 0 0 Z " fill="#FEFEFE" transform="translate(256,185)"/>
<path d="M0 0 C2.82741495 1.72786469 3.34358138 2.90801857 5 6 C5.91506578 10.22908777 5.4917442 13.22960075 3.125 16.9375 C0.28630124 19.69270762 -1.445232 20.22301287 -5.3125 20.4375 C-9.1758643 20.37518767 -9.86169039 20.11008316 -13.0625 17.5625 C-15.33004238 14.2283436 -15.73750344 11.10255086 -15.46875 7.125 C-15 5 -15 5 -13.125 1.9375 C-8.73384833 -0.78501403 -5.03212922 -1.14666551 0 0 Z " fill="#F7F7F7" transform="translate(231,228)"/>
<path d="M0 0 C2.75329021 1.79562405 4.52627461 3.05254922 6 6 C6.5811138 13.08958838 6.5811138 13.08958838 4.125 16.9375 C1.28630124 19.69270762 -0.445232 20.22301287 -4.3125 20.4375 C-8.1758643 20.37518767 -8.86169039 20.11008316 -12.0625 17.5625 C-14.35938403 14.20490216 -14.65869677 11.05561414 -14.4296875 7.0546875 C-13.79670288 4.02787015 -12.51357619 2.7235951 -10 1 C-6.39427296 -0.20190901 -3.7897565 -0.32670315 0 0 Z " fill="#F9F9F9" transform="translate(278,228)"/>
<path d="M0 0 C1.65 1.65 3.3 3.3 5 5 C3.22059365 9.52939799 0.10070454 11.93675541 -4.179245 14.10299683 C-7.7566272 15.24060828 -11.10755966 15.26408462 -14.81958008 15.22705078 C-15.59084229 15.22734283 -16.36210449 15.22763489 -17.15673828 15.22793579 C-19.69445219 15.22654752 -22.23186891 15.21101015 -24.76953125 15.1953125 C-26.53358296 15.19158058 -28.29763675 15.18873445 -30.06169128 15.18673706 C-34.69609335 15.1791147 -39.33036931 15.15947821 -43.96472168 15.1373291 C-48.69716689 15.11684057 -53.42963256 15.10772891 -58.16210938 15.09765625 C-67.44146154 15.076231 -76.72072027 15.04211192 -86 15 C-86 14.67 -86 14.34 -86 14 C-64.88 13.67 -43.76 13.34 -22 13 C-21.67 12.01 -21.34 11.02 -21 10 C-41.46 9.67 -61.92 9.34 -83 9 C-83 8.67 -83 8.34 -83 8 C-82.07371796 7.99635437 -81.14743591 7.99270874 -80.19308472 7.98895264 C-71.4533501 7.95104784 -62.7139877 7.89416672 -53.97451591 7.81609726 C-49.48169391 7.77662891 -44.98906771 7.74443736 -40.49609375 7.72900391 C-36.15810775 7.71383297 -31.82066008 7.67938002 -27.48291397 7.63169098 C-25.83001516 7.61688162 -24.17703949 7.60895924 -22.52407455 7.60811615 C-20.20410882 7.60574329 -17.88562697 7.57864093 -15.56591797 7.54589844 C-14.24687469 7.53701599 -12.92783142 7.52813354 -11.56881714 7.51898193 C-7.39916608 6.91262597 -5.24962873 5.6385168 -2 3 C-1.34 2.01 -0.68 1.02 0 0 Z " fill="#CDCDCD" transform="translate(296,261)"/>
<path d="M0 0 C2.475 0.495 2.475 0.495 5 1 C5 3.97 5 6.94 5 10 C8.63 10 12.26 10 16 10 C16 7.03 16 4.06 16 1 C17.65 0.67 19.3 0.34 21 0 C21 8.25 21 16.5 21 25 C19.68 25.33 18.36 25.66 17 26 C16 25 16 25 15.90234375 22.71484375 C15.95117188 18.85742188 15.95117188 18.85742188 16 15 C12.04 15 8.08 15 4 15 C4 18.3 4 21.6 4 25 C2.68 25.33 1.36 25.66 0 26 C0 17.42 0 8.84 0 0 Z " fill="#EDEDED" transform="translate(274,292)"/>
<path d="M0 0 C4.53476891 -0.14958639 9.06806783 -0.25778439 13.60473633 -0.32958984 C15.14405364 -0.35955458 16.68320325 -0.40034291 18.22192383 -0.45263672 C33.64292201 -0.96316636 33.64292201 -0.96316636 40.39306641 4.45043945 C44.78198247 8.68265614 47.77511394 12.66718853 48.1953125 18.89453125 C48.17210937 19.85746094 48.14890625 20.82039063 48.125 21.8125 C48.10695313 22.78832031 48.08890625 23.76414063 48.0703125 24.76953125 C48.04710937 25.50558594 48.02390625 26.24164063 48 27 C49.65 27 51.3 27 53 27 C53 27.33 53 27.66 53 28 C51.02 28 49.04 28 47 28 C46.505 24.04 46.505 24.04 46 20 C44.35 21.32 42.7 22.64 41 24 C40.90203125 23.40832031 40.8040625 22.81664062 40.703125 22.20703125 C39.74511562 17.14444718 38.75375474 13.75375474 35 10 C31.39621073 7.59747382 28.7566158 7.69384002 24.59106445 7.68115234 C23.83960144 7.67110672 23.08813843 7.6610611 22.31390381 7.65071106 C19.83037073 7.61982343 17.34694572 7.60282861 14.86328125 7.5859375 C13.14120042 7.56723032 11.4191288 7.54765725 9.69706726 7.5272522 C5.16467716 7.47587737 0.63225732 7.43628034 -3.90026855 7.39910889 C-8.5253844 7.35910274 -13.15037598 7.30799496 -17.77539062 7.2578125 C-26.85017319 7.16098989 -35.92502583 7.07660541 -45 7 C-45 6.67 -45 6.34 -45 6 C-43.59725327 5.99120064 -43.59725327 5.99120064 -42.16616821 5.98222351 C-33.36636686 5.92508698 -24.5668148 5.85237353 -15.76726723 5.76428509 C-11.2429748 5.71949839 -6.71877415 5.68026091 -2.19433594 5.65356445 C2.16949723 5.62761381 6.53297876 5.58727085 10.896595 5.53681374 C12.5639675 5.52008899 14.23140091 5.50860975 15.89884567 5.50238609 C18.22900276 5.49280543 20.55824877 5.4648212 22.88818359 5.43237305 C23.58229843 5.43380814 24.27641327 5.43524323 24.99156189 5.4367218 C27.11347278 5.42946734 27.11347278 5.42946734 30 5 C30.66 4.01 31.32 3.02 32 2 C21.44 1.67 10.88 1.34 0 1 C0 0.67 0 0.34 0 0 Z " fill="#CECECE" transform="translate(257,200)"/>
<path d="M0 0 C1.48831242 0.00667405 2.97660807 0.01863442 4.46484375 0.03515625 C5.22345703 0.03966797 5.98207031 0.04417969 6.76367188 0.04882812 C8.64326246 0.06064945 10.52281274 0.07858547 12.40234375 0.09765625 C12.40234375 1.41765625 12.40234375 2.73765625 12.40234375 4.09765625 C8.44234375 4.09765625 4.48234375 4.09765625 0.40234375 4.09765625 C0.40234375 6.07765625 0.40234375 8.05765625 0.40234375 10.09765625 C3.70234375 10.09765625 7.00234375 10.09765625 10.40234375 10.09765625 C10.73234375 11.41765625 11.06234375 12.73765625 11.40234375 14.09765625 C10.40234375 15.09765625 10.40234375 15.09765625 8.1171875 15.1953125 C6.74240234 15.17791016 6.74240234 15.17791016 5.33984375 15.16015625 C4.42074219 15.15113281 3.50164062 15.14210938 2.5546875 15.1328125 C1.84441406 15.12121094 1.13414062 15.10960937 0.40234375 15.09765625 C0.40234375 17.40765625 0.40234375 19.71765625 0.40234375 22.09765625 C4.36234375 22.09765625 8.32234375 22.09765625 12.40234375 22.09765625 C12.40234375 23.41765625 12.40234375 24.73765625 12.40234375 26.09765625 C9.75644361 26.12450304 7.11081279 26.14441982 4.46484375 26.16015625 C3.71009766 26.16853516 2.95535156 26.17691406 2.17773438 26.18554688 C0.25240062 26.19418066 -1.67301206 26.14989958 -3.59765625 26.09765625 C-5.31333417 24.38197833 -4.7278145 22.1239289 -4.73046875 19.78515625 C-4.73175781 18.71007812 -4.73304688 17.635 -4.734375 16.52734375 C-4.72857422 14.82964844 -4.72857422 14.82964844 -4.72265625 13.09765625 C-4.72652344 11.96585937 -4.73039063 10.8340625 -4.734375 9.66796875 C-4.73308594 8.59289062 -4.73179687 7.5178125 -4.73046875 6.41015625 C-4.72934082 5.41628906 -4.72821289 4.42242187 -4.72705078 3.3984375 C-4.51360849 -0.39680802 -3.96567245 0.10764583 0 0 Z " fill="#EEEEEE" transform="translate(232.59765625,291.90234375)"/>
<path d="M0 0 C1.5 1.0625 1.5 1.0625 3 3 C3.41832141 6.76489272 3.31945729 9.26020418 1.8125 12.75 C-0.27477285 15.34109733 -1.96981447 16.62920178 -5 18 C-7.8125 18.1875 -7.8125 18.1875 -10 18 C-9.96519531 18.556875 -9.93039062 19.11375 -9.89453125 19.6875 C-9.686677 25.54701038 -10.65674193 29.6300336 -13 35 C-16.875 34.125 -16.875 34.125 -18 33 C-18.24828499 19.61034504 -18.24828499 19.61034504 -14.75 15.375 C-12.21050147 13.18179672 -9.64495373 11.06435413 -7 9 C-2.61718282 5.11000374 -2.61718282 5.11000374 0 0 Z " fill="#F9F9F9" transform="translate(315,231)"/>
<path d="M0 0 C0.88602402 0.00222061 1.77204803 0.00444122 2.68492126 0.00672913 C3.68588333 0.00680466 4.6868454 0.00688019 5.71813965 0.00695801 C6.80666733 0.01211929 7.89519501 0.01728058 9.01670837 0.02259827 C10.67928932 0.02472069 10.67928932 0.02472069 12.37545776 0.02688599 C15.93168281 0.03250418 19.48784596 0.04505977 23.04405212 0.05775452 C25.44834809 0.06276717 27.85264504 0.06733048 30.25694275 0.07142639 C36.16516716 0.08247952 42.07335522 0.09923535 47.98155212 0.12025452 C47.98155212 1.44025452 47.98155212 2.76025452 47.98155212 4.12025452 C46.98155212 5.12025452 46.98155212 5.12025452 45.03903198 5.24050903 C44.18853775 5.23828842 43.33804352 5.23606781 42.46177673 5.23377991 C41.02039589 5.23366661 41.02039589 5.23366661 39.54989624 5.23355103 C38.50511612 5.22838974 37.460336 5.22322845 36.38389587 5.21791077 C35.31990067 5.21649582 34.25590546 5.21508087 33.15966797 5.21362305 C29.74610129 5.20800515 26.33259913 5.19544963 22.91905212 5.18275452 C20.61111036 5.17774182 18.30316757 5.17317852 15.995224 5.16908264 C10.32397786 5.15802991 4.6527696 5.14127438 -1.01844788 5.12025452 C-1.67844788 3.80025452 -2.33844788 2.48025452 -3.01844788 1.12025452 C-2.01844788 0.12025452 -2.01844788 0.12025452 0 0 Z " fill="#FEFEFE" transform="translate(227.01844787597656,269.87974548339844)"/>
<path d="M0 0 C1.265625 2.05859375 1.265625 2.05859375 2 4 C-0.84185555 4.66867189 -3.12877252 4.99211597 -6.0625 4.8125 C-9.05244046 4.76785646 -9.05244046 4.76785646 -11.375 6.5 C-13.66556244 10.02394222 -13.78746089 12.91190517 -13 17 C-11.79504081 19.70558862 -11.79504081 19.70558862 -9 21 C-5.63905152 21.31607666 -2.3643667 21.2311397 1 21 C1 22.32 1 23.64 1 25 C-2.71268231 26.85634116 -6.94813255 26.44744549 -11 26 C-14.48313228 24.32063265 -16.32458734 23.07452014 -18.375 19.8125 C-19.60301236 14.2864444 -19.86559348 9.79777107 -17.375 4.625 C-12.55663005 -0.70056679 -6.87249802 -2.51533427 0 0 Z " fill="#F1F1F1" transform="translate(268,292)"/>
<path d="M0 0 C0.74617584 0.00565979 1.49235168 0.01131958 2.26113892 0.01715088 C4.62528887 0.03939602 6.98787709 0.08956516 9.3515625 0.140625 C10.96221757 0.16070556 12.57289659 0.1789536 14.18359375 0.1953125 C18.11517757 0.23922119 22.04560602 0.30816182 25.9765625 0.390625 C25.9765625 0.720625 25.9765625 1.050625 25.9765625 1.390625 C10.1365625 1.885625 10.1365625 1.885625 -6.0234375 2.390625 C-5.6934375 4.040625 -5.3634375 5.690625 -5.0234375 7.390625 C-5.74660156 7.86242187 -5.74660156 7.86242187 -6.484375 8.34375 C-11.35909239 11.46927207 -11.35909239 11.46927207 -14.0234375 16.390625 C-14.45521036 19.05836443 -14.7541822 21.69807196 -15.0234375 24.390625 C-20.64012296 21.04451452 -20.64012296 21.04451452 -22.0859375 18.578125 C-21.94768144 13.73916277 -19.7646648 10.25205133 -16.7109375 6.703125 C-11.16986159 1.93522247 -7.3759718 -0.21365128 0 0 Z " fill="#EBEBEB" transform="translate(217.0234375,199.609375)"/>
<path d="M0 0 C6.93 0 13.86 0 21 0 C21 1.32 21 2.64 21 4 C18.36 4 15.72 4 13 4 C13 10.93 13 17.86 13 25 C11.68 25.33 10.36 25.66 9 26 C8 25 8 25 7.88647461 22.95874023 C7.89171143 22.08419189 7.89694824 21.20964355 7.90234375 20.30859375 C7.90556641 19.36435547 7.90878906 18.42011719 7.91210938 17.44726562 C7.92048828 16.45404297 7.92886719 15.46082031 7.9375 14.4375 C7.94201172 13.44041016 7.94652344 12.44332031 7.95117188 11.41601562 C7.96299993 8.94395151 7.97948151 6.47200482 8 4 C5.69 4 3.38 4 1 4 C0.67 2.68 0.34 1.36 0 0 Z " fill="#F2F2F2" transform="translate(203,292)"/>
<path d="M0 0 C4.06652629 1.7568107 6.33202078 4.36290539 9.21875 7.63671875 C10.90959668 9.25258658 10.90959668 9.25258658 13.1171875 8.7890625 C16.85649124 7.2219684 18.38531706 4.60198502 20 1 C20.49029622 8.23186925 20.49029622 8.23186925 18.125 11.9375 C15.28630124 14.69270762 13.554768 15.22301287 9.6875 15.4375 C5.8241357 15.37518767 5.13830961 15.11008316 1.9375 12.5625 C-0.79363517 8.6622145 -0.45719524 4.57195239 0 0 Z " fill="#F1F1F1" transform="translate(264,233)"/>
<path d="M0 0 C1.5 1 1.5 1 3 3 C3.5375463 7.7611244 3.71502323 9.87979695 1.125 13.9375 C-1.82739956 16.80306428 -3.48544105 17.17179431 -7.5 17.25 C-8.2940625 17.27578125 -9.088125 17.3015625 -9.90625 17.328125 C-10.5971875 17.21984375 -11.288125 17.1115625 -12 17 C-12.66 16.01 -13.32 15.02 -14 14 C-13.34 14 -12.68 14 -12 14 C-12 13.34 -12 12.68 -12 12 C-10.390625 10.44921875 -10.390625 10.44921875 -8.25 8.6875 C-5.09829823 6.01637687 -2.44230671 3.35817172 0 0 Z " fill="#F0F0F0" transform="translate(233,231)"/>
<path d="M0 0 C-1.32 0.33 -2.64 0.66 -4 1 C-1.69 3.64 0.62 6.28 3 9 C2.67 9.66 2.34 10.32 2 11 C0.02 9.02 -1.96 7.04 -4 5 C-7.67689304 6.5278414 -9.90198808 8.75627506 -12.625 11.625 C-14.04510127 13.12058838 -15.49594968 14.58886398 -17 16 C-17.66 16 -18.32 16 -19 16 C-19.45763495 10.27956317 -18.71653644 7.40116157 -15 3 C-9.95931061 -1.57178805 -6.29575569 -1.28713228 0 0 Z " fill="#F4F4F4" transform="translate(255,159)"/>
<path d="M0 0 C3.45201639 1.47721422 5.64961936 3.43794001 8.25 6.125 C8.95640625 6.84945312 9.6628125 7.57390625 10.390625 8.3203125 C11.18726563 9.15175781 11.18726563 9.15175781 12 10 C15.21524305 8.59155282 17.32183868 6.89655214 19.75 4.375 C20.36359375 3.74335938 20.9771875 3.11171875 21.609375 2.4609375 C22.06828125 1.97882813 22.5271875 1.49671875 23 1 C23.66 1.33 24.32 1.66 25 2 C23.625 4 23.625 4 22 6 C21.34 6 20.68 6 20 6 C20 11.61 20 17.22 20 23 C19.67 23 19.34 23 19 23 C18.67 18.38 18.34 13.76 18 9 C17.21753906 9.7940625 16.43507812 10.588125 15.62890625 11.40625 C14.60690222 12.43763021 13.58475966 13.46887316 12.5625 14.5 C12.04623047 15.02464844 11.52996094 15.54929688 10.99804688 16.08984375 C9.68423213 17.41224552 8.34406495 18.70835568 7 20 C6.67 20 6.34 20 6 20 C5.98582031 19.13117188 5.97164062 18.26234375 5.95703125 17.3671875 C5.6580095 10.14217544 5.39232875 5.97753423 0 1 C0 0.67 0 0.34 0 0 Z " fill="#FAFAFA" transform="translate(237,177)"/>
<path d="M0 0 C3.1857029 1.39330742 5.19822217 3.02896738 7.5625 5.5625 C9.8343494 7.99626295 10.76779382 8.92259794 14 10 C15.32229189 12.64458379 15.09677194 14.67761301 15.0625 17.625 C15.05347656 18.62789062 15.04445313 19.63078125 15.03515625 20.6640625 C15.02355469 21.43492187 15.01195312 22.20578125 15 23 C16.65 23 18.3 23 20 23 C20 23.33 20 23.66 20 24 C18.02 24 16.04 24 14 24 C13.67 21.36 13.34 18.72 13 16 C11.35 17.32 9.7 18.64 8 20 C7.90203125 19.40832031 7.8040625 18.81664062 7.703125 18.20703125 C6.31597191 10.87664467 3.33929485 7.14860575 -2 2 C-1.34 1.34 -0.68 0.68 0 0 Z " fill="#E3E3E3" transform="translate(290,204)"/>
<path d="M0 0 C0.29321709 4.98469052 0.18338925 8.04820644 -3 12 C-6.41488918 14.60609964 -8.72211203 15.36667611 -13 15 C-13 17.97 -13 20.94 -13 24 C-13.33 24 -13.66 24 -14 24 C-14.34081133 19.20970735 -14.60930544 15.26938634 -12.5 10.875 C-3.04347826 0 -3.04347826 0 0 0 Z " fill="#E6E6E6" transform="translate(318,234)"/>
<path d="M0 0 C2.6875 -0.3125 2.6875 -0.3125 6 0 C8.57285724 2.172635 10.48996919 3.97993838 12 7 C12.06996014 8.70702735 12.08440154 10.41668003 12.0625 12.125 C12.05347656 13.03507813 12.04445313 13.94515625 12.03515625 14.8828125 C12.02355469 15.58148438 12.01195312 16.28015625 12 17 C9.84520255 14.38346023 7.85499644 11.7779633 6 8.9375 C4.12034461 5.98043914 4.12034461 5.98043914 1.75 3.75 C1.1725 3.1725 0.595 2.595 0 2 C0 1.34 0 0.68 0 0 Z " fill="#F7F7F7" transform="translate(251,160)"/>
<path d="M0 0 C2.875 -0.125 2.875 -0.125 6 0 C8 2 8 2 8.1953125 3.9453125 C8.13020833 5.96354167 8.06510417 7.98177083 8 10 C7.34 10 6.68 10 6 10 C5.67 9.34 5.34 8.68 5 8 C4.01 7.67 3.02 7.34 2 7 C2 7.99 2 8.98 2 10 C1.34 10 0.68 10 0 10 C0 6.7 0 3.4 0 0 Z " fill="#979797" transform="translate(270,329)"/>
<path d="M0 0 C0.66 0 1.32 0 2 0 C3.38232443 1.62626404 4.71937515 3.2925002 6 5 C6.45375 4.175 6.9075 3.35 7.375 2.5 C7.91125 1.675 8.4475 0.85 9 0 C9.66 0 10.32 0 11 0 C11 3.3 11 6.6 11 10 C10.34 10 9.68 10 9 10 C8.67 9.01 8.34 8.02 8 7 C7.01 7.66 6.02 8.32 5 9 C4.34 8.01 3.68 7.02 3 6 C2.67 7.32 2.34 8.64 2 10 C1.34 10 0.68 10 0 10 C0 6.7 0 3.4 0 0 Z " fill="#BBBBBB" transform="translate(211,329)"/>
<path d="M0 0 C2.31 0 4.62 0 7 0 C7 0.66 7 1.32 7 2 C5.35 2 3.7 2 2 2 C2 2.66 2 3.32 2 4 C3.32 4 4.64 4 6 4 C6 4.66 6 5.32 6 6 C4.68 6 3.36 6 2 6 C2 6.66 2 7.32 2 8 C3.65 8 5.3 8 7 8 C7 8.66 7 9.32 7 10 C4.69 10 2.38 10 0 10 C0 6.7 0 3.4 0 0 Z " fill="#B3B3B3" transform="translate(259,329)"/>
<path d="M0 0 C0.66 0.33 1.32 0.66 2 1 C0.625 3 0.625 3 -1 5 C-1.66 5 -2.32 5 -3 5 C-3 10.61 -3 16.22 -3 22 C-3.33 22 -3.66 22 -4 22 C-4.33 17.38 -4.66 12.76 -5 8 C-6.32 9.32 -7.64 10.64 -9 12 C-9.66 12 -10.32 12 -11 12 C-11 11.34 -11 10.68 -11 10 C-9.35546875 8.37890625 -9.35546875 8.37890625 -7.1875 6.5625 C-4.68897282 4.45536324 -2.2757944 2.34758602 0 0 Z " fill="#D6D6D6" transform="translate(260,178)"/>
<path d="M0 0 C1.65 0.33 3.3 0.66 5 1 C5 1.33 5 1.66 5 2 C3.35 2 1.7 2 0 2 C0 2.66 0 3.32 0 4 C1.65 4.33 3.3 4.66 5 5 C5.5625 6.9375 5.5625 6.9375 6 9 C5 10 5 10 1.9375 10.0625 C0.968125 10.041875 -0.00125 10.02125 -1 10 C-1.33 9.34 -1.66 8.68 -2 8 C-0.35 8 1.3 8 3 8 C1.35 6.68 -0.3 5.36 -2 4 C-1.34 2.68 -0.68 1.36 0 0 Z " fill="#BABABA" transform="translate(239,329)"/>
<path d="M0 0 C2.64 0 5.28 0 8 0 C8 0.66 8 1.32 8 2 C7.01 2 6.02 2 5 2 C5 4.64 5 7.28 5 10 C4.34 10 3.68 10 3 10 C3 7.36 3 4.72 3 2 C2.01 2 1.02 2 0 2 C0 1.34 0 0.68 0 0 Z " fill="#B1B1B1" transform="translate(247,329)"/>
<path d="M0 0 C0.66 0.33 1.32 0.66 2 1 C0.88200014 2.33920838 -0.24461897 3.67122556 -1.375 5 C-2.00148437 5.7425 -2.62796875 6.485 -3.2734375 7.25 C-4.12808594 8.11625 -4.12808594 8.11625 -5 9 C-5.66 9 -6.32 9 -7 9 C-5.64978174 4.58110387 -3.73884332 2.65654657 0 0 Z " fill="#DFDFDF" transform="translate(205,202)"/>
<path d="M0 0 C0.33 0.99 0.66 1.98 1 3 C-0.3125 5.1875 -0.3125 5.1875 -2 7 C-2.66 7 -3.32 7 -4 7 C-4 5.68 -4 4.36 -4 3 C-2 1.25 -2 1.25 0 0 Z " fill="#E8E8E8" transform="translate(282,240)"/>
<path d="M0 0 C1.22589844 0.15275391 1.22589844 0.15275391 2.4765625 0.30859375 C3.41628906 0.43427734 3.41628906 0.43427734 4.375 0.5625 C4.375 0.8925 4.375 1.2225 4.375 1.5625 C-2.025 2.79326923 -2.025 2.79326923 -5.0625 1.625 C-5.578125 1.274375 -6.09375 0.92375 -6.625 0.5625 C-4.10446405 -0.69776798 -2.7707902 -0.35624445 0 0 Z " fill="#C7C7C7" transform="translate(250.625,158.4375)"/>
<path d="M0 0 C3.36720387 1.39332574 4.9859524 2.9789286 7 6 C6.01 6 5.02 6 4 6 C0 1.54285714 0 1.54285714 0 0 Z " fill="#E8E8E8" transform="translate(237,177)"/>
</svg>
